<?xml version="1.0" encoding="UTF-8"?>
<svg xmlns="http://www.w3.org/2000/svg" width="1800" height="1020" viewBox="0 0 1800 1020">
  <defs>
    <marker id="arrow" markerWidth="10" markerHeight="10" refX="9" refY="5" orient="auto" markerUnits="strokeWidth">
      <path d="M 0 0 L 10 5 L 0 10 z" fill="#313131"/>
    </marker>
    <style>
      .bg { fill: #ececec; }
      .node {
        fill: #e8e7f4;
        stroke: #b6a8ff;
        stroke-width: 1.4;
      }
      .edge {
        fill: none;
        stroke: #313131;
        stroke-width: 1.35;
        marker-end: url(#arrow);
      }
      .edge-dashed {
        fill: none;
        stroke: #666666;
        stroke-width: 1.2;
        stroke-dasharray: 3 3;
        marker-end: url(#arrow);
      }
      .text {
        font-family: Arial, Helvetica, sans-serif;
        font-size: 18px;
        fill: #2f2f2f;
        text-anchor: middle;
      }
      .small {
        font-family: Arial, Helvetica, sans-serif;
        font-size: 32px;
        fill: #444444;
        text-anchor: middle;
      }
    </style>
  </defs>

  <rect class="bg" x="0" y="0" width="1800" height="1020"/>

  <!-- Nodes -->
  <rect class="node" x="90" y="280" width="220" height="46"/>
  <text class="text" x="200" y="308">User or Platform Consumer</text>

  <rect class="node" x="350" y="275" width="230" height="68"/>
  <text class="text" x="465" y="306">FastAPI API Layer</text>
  <text class="text" x="465" y="331">(eip/api/main.py)</text>

  <rect class="node" x="95" y="845" width="210" height="48"/>
  <text class="text" x="200" y="875">Workers and Async Flows</text>

  <rect class="node" x="640" y="120" width="190" height="48"/>
  <text class="text" x="735" y="150">Risk Engine (Pillar 1)</text>

  <rect class="node" x="630" y="220" width="220" height="48"/>
  <text class="text" x="740" y="250">Architecture Map (Pillar 2)</text>

  <rect class="node" x="625" y="310" width="230" height="66"/>
  <text class="text" x="740" y="342">Incident Intelligence (Pillar</text>
  <text class="text" x="740" y="366">3)</text>

  <rect class="node" x="625" y="418" width="230" height="48"/>
  <text class="text" x="740" y="448">Cost Intelligence (Pillar 4)</text>

  <rect class="node" x="625" y="515" width="230" height="64"/>
  <text class="text" x="740" y="545">Compliance Copilot (Pillar</text>
  <text class="text" x="740" y="569">5)</text>

  <rect class="node" x="605" y="632" width="260" height="66"/>
  <text class="text" x="735" y="662">NLQ Engine</text>
  <text class="text" x="735" y="686">(eip/intelligence/nlq_engine.py)</text>

  <rect class="node" x="625" y="746" width="230" height="92"/>
  <text class="text" x="740" y="775">platform.auto.tfvars and</text>
  <text class="text" x="740" y="799">env vars</text>
  <text class="text" x="740" y="823">(eip/core/settings.py)</text>

  <rect class="node" x="915" y="225" width="230" height="68"/>
  <text class="text" x="1030" y="257">LLM Wrapper</text>
  <text class="text" x="1030" y="281">(eip/core/llm.py)</text>

  <rect class="node" x="915" y="430" width="230" height="92"/>
  <text class="text" x="1030" y="463">Store Layers</text>
  <text class="text" x="1030" y="487">(historical_db.py and</text>
  <text class="text" x="1030" y="511">incident_db.py)</text>

  <rect class="node" x="905" y="610" width="250" height="74"/>
  <text class="text" x="1030" y="643">Provider Registry</text>
  <text class="text" x="1030" y="667">(eip/core/provider_registry.py)</text>

  <rect class="node" x="905" y="740" width="230" height="66"/>
  <text class="text" x="1020" y="770">Secrets Wrapper</text>
  <text class="text" x="1020" y="794">(eip/core/secrets.py)</text>

  <rect class="node" x="915" y="842" width="230" height="64"/>
  <text class="text" x="1030" y="871">Event Bus Wrapper</text>
  <text class="text" x="1030" y="895">(eip/core/event_bus.py)</text>

  <rect class="node" x="1265" y="562" width="210" height="66"/>
  <text class="text" x="1370" y="593">Stub Providers</text>
  <text class="text" x="1370" y="617">(eip/stubs/providers.py)</text>

  <rect class="node" x="1275" y="745" width="200" height="48"/>
  <text class="text" x="1375" y="775">Live Providers (pending)</text>

  <rect class="node" x="1528" y="430" width="230" height="66"/>
  <text class="text" x="1643" y="461">Stub Risk, Incident, Cost,</text>
  <text class="text" x="1643" y="485">and Compliance data</text>

  <rect class="node" x="1528" y="542" width="230" height="66"/>
  <text class="text" x="1643" y="573">Stub Architecture graph</text>
  <text class="text" x="1643" y="597">snapshot</text>

  <rect class="node" x="1528" y="654" width="230" height="66"/>
  <text class="text" x="1643" y="687">Stub NLQ data adapters</text>

  <rect class="node" x="1528" y="772" width="230" height="90"/>
  <text class="text" x="1643" y="804">AWS Services planned:</text>
  <text class="text" x="1643" y="828">DynamoDB, EventBridge,</text>
  <text class="text" x="1643" y="852">Neptune, Cost Explorer</text>

  <rect class="node" x="1528" y="900" width="230" height="94"/>
  <text class="text" x="1643" y="932">External integrations</text>
  <text class="text" x="1643" y="956">planned: Slack, PagerDuty,</text>
  <text class="text" x="1643" y="980">Jenkins, GitHub</text>

  <!-- Edges -->
  <path class="edge" d="M 310 303 L 350 303"/>
  <path class="edge" d="M 200 845 C 250 760, 320 500, 440 343"/>

  <path class="edge" d="M 580 300 C 610 250, 620 190, 640 144"/>
  <path class="edge" d="M 580 300 C 610 270, 620 250, 630 244"/>
  <path class="edge" d="M 580 309 C 610 322, 616 338, 625 343"/>
  <path class="edge" d="M 580 320 C 610 380, 618 430, 625 442"/>
  <path class="edge" d="M 580 330 C 610 420, 620 515, 625 548"/>
  <path class="edge" d="M 580 338 C 615 500, 635 615, 605 665"/>

  <path class="edge" d="M 580 337 C 690 470, 790 560, 905 647"/>
  <path class="edge" d="M 865 665 C 880 665, 890 655, 905 647"/>
  <path class="edge" d="M 305 870 C 500 868, 700 820, 905 647"/>

  <path class="edge" d="M 305 870 C 500 874, 710 874, 915 874"/>
  <path class="edge" d="M 305 870 C 520 850, 760 700, 915 476"/>

  <path class="edge" d="M 855 792 C 875 760, 885 700, 905 647"/>
  <path class="edge" d="M 855 792 C 880 772, 890 772, 905 773"/>
  <path class="edge" d="M 855 792 C 875 860, 890 875, 915 874"/>
  <path class="edge" d="M 855 792 C 890 720, 910 620, 915 476"/>

  <path class="edge" d="M 830 144 C 885 148, 910 190, 915 240"/>
  <path class="edge" d="M 855 343 C 885 335, 900 300, 915 270"/>
  <path class="edge" d="M 855 442 C 885 430, 900 340, 915 285"/>
  <path class="edge" d="M 865 665 C 885 640, 900 350, 915 285"/>

  <path class="edge" d="M 830 144 C 900 190, 940 320, 995 430"/>
  <path class="edge" d="M 855 343 C 890 355, 915 400, 955 430"/>

  <path class="edge" d="M 1155 647 C 1220 620, 1240 605, 1265 595"/>
  <path class="edge-dashed" d="M 1155 668 C 1215 700, 1238 740, 1275 769"/>
  <text class="small" x="1215" y="772">future switch</text>

  <path class="edge" d="M 1475 595 C 1500 560, 1508 505, 1528 463"/>
  <path class="edge" d="M 1475 595 C 1500 588, 1508 583, 1528 575"/>
  <path class="edge" d="M 1475 595 C 1500 620, 1508 665, 1528 687"/>

  <path class="edge" d="M 1475 769 C 1500 785, 1508 802, 1528 817"/>
  <path class="edge" d="M 1475 769 C 1500 830, 1510 900, 1528 947"/>
</svg>
